<?xml version="1.0" encoding="UTF-8"?>
<svg version="1.1" xmlns="http://www.w3.org/2000/svg" width="922" height="1000">
<path d="M0 0 C1.17305695 0.00456207 1.17305695 0.00456207 2.36981201 0.00921631 C15.00989583 0.08162558 27.03190745 0.97373007 39.25 4.4375 C40.41088135 4.75895996 40.41088135 4.75895996 41.59521484 5.08691406 C79.23502802 15.81437793 111.72843448 41.58581288 131.0625 75.5 C151.08427289 111.81297079 155.58506585 153.27620949 144.5 193.1875 C138.45275306 213.70836248 128.56033062 232.42933354 114.25 248.4375 C112.95449219 249.93023437 112.95449219 249.93023437 111.6328125 251.453125 C102.95640495 261.31831507 93.05826055 269.06804663 82.1953125 276.39453125 C79.4428864 278.30370745 76.85361937 280.33259204 74.25 282.4375 C131.24057572 296.22668402 188.23164581 310.01354365 245.25 323.6875 C247.25198492 324.16766844 249.25396856 324.64784219 251.25595093 325.12802124 C261.33442119 327.54528938 271.41303412 329.96196233 281.49169922 332.37841797 C301.41237332 337.15467185 321.33287689 341.93163185 341.25191689 346.71469688 C348.19399929 348.3816112 355.13643134 350.04705823 362.07914829 351.71132755 C366.36123936 352.73818744 370.64298514 353.76648124 374.92463493 354.79517937 C376.90598479 355.27091795 378.88747298 355.74608085 380.86911201 356.22061348 C410.34443523 363.27996331 410.34443523 363.27996331 414.25 367.4375 C417.31147266 372.55309222 416.97950079 378.19278714 415.69900513 383.88824463 C414.91898923 386.44076066 414.04693354 388.9391476 413.12890625 391.4453125 C412.79823654 392.38698273 412.46756683 393.32865295 412.12687683 394.29885864 C411.03668482 397.39213015 409.92464985 400.47706265 408.8125 403.5625 C408.0333786 405.76087912 407.2557357 407.95978274 406.47949219 410.15917969 C404.4734048 415.83227705 402.4497597 421.49893193 400.42095947 427.16394043 C397.60436827 435.03806356 394.8159692 442.92223992 392.02252197 450.80459595 C390.99048631 453.71432296 389.95603807 456.62318461 388.92138672 459.53198242 C383.44664627 474.94463545 378.11459605 490.40462241 372.80917358 505.87609863 C359.91453884 543.47507279 359.91453884 543.47507279 354.93276978 557.35720825 C354.44442129 558.72034862 353.95925497 560.08463417 353.47763062 561.45016479 C352.83735693 563.26194423 352.18279028 565.06865426 351.52734375 566.875 C351.17921631 567.84308594 350.83108887 568.81117188 350.47241211 569.80859375 C348.3472065 574.37903793 345.94219793 577.50920454 341.25 579.4375 C334.91817555 580.31976353 329.27662091 578.88830985 323.31640625 576.88671875 C322.44354477 576.60540604 321.57068329 576.32409332 320.67137146 576.03425598 C317.71410625 575.07724302 314.76351229 574.10110946 311.8125 573.125 C309.65854102 572.42344091 307.504231 571.72295886 305.34960938 571.0234375 C298.37838824 568.75431957 291.41546107 566.46035111 284.45322418 564.16387177 C280.52908914 562.8701401 276.60409163 561.57902939 272.67919922 560.28759766 C259.52703141 555.95935939 246.37527669 551.62986892 233.22706413 547.28962803 C206.8243864 538.57442256 180.38564531 529.98644291 153.87915039 521.59130859 C151.66494122 520.88734946 149.45418979 520.17222993 147.25 519.4375 C142.83721544 518.9471906 140.96390316 518.89431281 137.375 521.625 C135.1855211 524.52283973 134.25 525.83253935 134.25 529.4375 C135.92281725 534.24684959 138.76748158 537.15988809 142.36328125 540.58984375 C144.2524284 542.43987813 145.96945504 544.36602752 147.6875 546.375 C150.10617779 549.18326347 152.60899683 551.83720593 155.25 554.4375 C157.84982183 556.99740134 160.31268398 559.6052954 162.6875 562.375 C165.25665271 565.36551716 167.94317256 568.16866684 170.75 570.9375 C174.1788279 574.31991399 177.37048518 577.81820442 180.50390625 581.47265625 C182.34615675 583.54570324 184.27401662 585.49185802 186.25 587.4375 C188.84982183 589.99740134 191.31268398 592.6052954 193.6875 595.375 C196.25665271 598.36551716 198.94317256 601.16866684 201.75 603.9375 C205.1788279 607.31991399 208.37048518 610.81820442 211.50390625 614.47265625 C213.34615675 616.54570324 215.27401662 618.49185802 217.25 620.4375 C219.84982183 622.99740134 222.31268398 625.6052954 224.6875 628.375 C227.25665271 631.36551716 229.94317256 634.16866684 232.75 636.9375 C236.1788279 640.31991399 239.37048518 643.81820442 242.50390625 647.47265625 C244.34615675 649.54570324 246.27401662 651.49185802 248.25 653.4375 C250.84982183 655.99740134 253.31268398 658.6052954 255.6875 661.375 C258.25665271 664.36551716 260.94317256 667.16866684 263.75 669.9375 C267.1788279 673.31991399 270.37048518 676.81820442 273.50390625 680.47265625 C275.34615675 682.54570324 277.27401662 684.49185802 279.25 686.4375 C281.84982183 688.99740134 284.31268398 691.6052954 286.6875 694.375 C289.25665271 697.36551716 291.94317256 700.16866684 294.75 702.9375 C298.1788279 706.31991399 301.37048518 709.81820442 304.50390625 713.47265625 C306.34615675 715.54570324 308.27401662 717.49185802 310.25 719.4375 C312.84982183 721.99740134 315.31268398 724.6052954 317.6875 727.375 C320.25665271 730.36551716 322.94317256 733.16866684 325.75 735.9375 C329.1788279 739.31991399 332.37048518 742.81820442 335.50390625 746.47265625 C337.34615675 748.54570324 339.27401662 750.49185802 341.25 752.4375 C343.84982183 754.99740134 346.31268398 757.6052954 348.6875 760.375 C351.25665271 763.36551716 353.94317256 766.16866684 356.75 768.9375 C360.17518528 772.31632068 363.36757761 775.80583692 366.48828125 779.46484375 C368.40047397 781.60599081 370.42937069 783.57484672 372.5 785.5625 C375.5810369 788.63157171 377.90131504 791.21162046 379.25 795.4375 C379.1541608 800.90033427 377.83693019 803.44200825 374.25 807.4375 C372.19309724 809.17196935 370.14256989 810.81850177 368 812.4375 C366.74900136 813.40104858 365.49904336 814.3659494 364.25 815.33203125 C363.59773437 815.83557129 362.94546875 816.33911133 362.2734375 816.85791016 C358.80803806 819.56316286 355.40521626 822.3446385 352 825.125 C350.64073856 826.23321221 349.28136676 827.34128909 347.921875 828.44921875 C347.28701172 828.96661621 346.65214844 829.48401367 345.99804688 830.01708984 C342.98864148 832.46244189 339.95425104 834.8762261 336.921875 837.29296875 C334.12710764 839.53613729 331.34824944 841.7980123 328.57055664 844.06225586 C322.85750517 848.71905633 317.12576732 853.34377474 311.3125 857.875 C306.05248554 861.97693612 300.88749844 866.18327866 295.75 870.4375 C290.0568908 875.15180735 284.31237184 879.78309651 278.48388672 884.32861328 C271.32015673 889.9253411 264.29218499 895.68919014 257.25 901.4375 C249.09041034 908.09791147 240.91466345 914.72610727 232.60888672 921.20361328 C227.92530645 924.87195515 223.33195552 928.64330849 218.75 932.4375 C213.0568908 937.15180735 207.31237184 941.78309651 201.48388672 946.32861328 C194.32015673 951.9253411 187.29218499 957.68919014 180.25 963.4375 C171.95506276 970.20839135 163.64626905 976.95224052 155.20458984 983.53979492 C151.50616179 986.43122534 147.86727644 989.38257023 144.25 992.375 C142.58407641 993.73008071 140.91752503 995.08439046 139.25 996.4375 C138.69054687 996.91445313 138.13109375 997.39140625 137.5546875 997.8828125 C134.02744958 1000.63906945 130.806782 1000.93577933 126.49609375 1001.06640625 C120.51283237 999.39109306 117.2400452 992.66337034 114.125 987.6875 C113.14731576 986.1509269 112.16944632 984.61447163 111.19140625 983.078125 C110.69914551 982.30017578 110.20688477 981.52222656 109.69970703 980.72070312 C107.51275836 977.27638787 105.28609201 973.85821867 103.0625 970.4375 C98.5115435 963.41503169 94.00472324 956.36468469 89.5 949.3125 C82.96390006 939.08343368 76.35679634 928.90275154 69.71484375 918.7421875 C65.29907941 911.9869534 60.91732417 905.20992196 56.53857422 898.43066406 C55.25805215 896.44995505 53.97512498 894.47082596 52.69140625 892.4921875 C47.26164821 884.11961458 41.87192804 875.7223016 36.5 867.3125 C29.96390006 857.08343368 23.35679634 846.90275154 16.71484375 836.7421875 C12.29907941 829.9869534 7.91732417 823.20992196 3.53857422 816.43066406 C2.25805215 814.44995505 0.97512498 812.47082596 -0.30859375 810.4921875 C-5.73835179 802.11961458 -11.12807196 793.7223016 -16.5 785.3125 C-23.03046285 775.09225579 -29.63080386 764.91970284 -36.26953125 754.76953125 C-38.98019287 750.6234189 -41.67046417 746.46472787 -44.35058594 742.29882812 C-50.72690269 730.39224178 -50.72690269 730.39224178 -59.75 721.4375 C-63.21061922 721.05298675 -65.11629299 721.03892887 -68.09765625 722.9140625 C-71.61110972 726.25675902 -73.87705422 729.99378198 -76.375 734.125 C-77.44181146 735.8521168 -78.50953755 737.57866895 -79.578125 739.3046875 C-80.11115234 740.17061523 -80.64417969 741.03654297 -81.19335938 741.92871094 C-83.45247047 745.5696497 -85.78440368 749.16111453 -88.125 752.75 C-92.37357681 759.28716626 -96.57042355 765.85602409 -100.75 772.4375 C-105.27666931 779.56407743 -109.82900142 786.67238057 -114.42578125 793.75390625 C-118.56126169 800.13093696 -122.65641637 806.53351535 -126.75 812.9375 C-131.27254145 820.01254442 -135.80307214 827.08175978 -140.375 834.125 C-144.53764896 840.53874916 -148.65032816 846.98333165 -152.75 853.4375 C-157.27675154 860.56402565 -161.82900093 867.67237981 -166.42578125 874.75390625 C-170.56126169 881.13093696 -174.65641637 887.53351535 -178.75 893.9375 C-183.27254145 901.01254442 -187.80307214 908.08175978 -192.375 915.125 C-196.53764896 921.53874916 -200.65032816 927.98333165 -204.75 934.4375 C-209.27392082 941.55956921 -213.82366654 948.6632515 -218.41699219 955.74072266 C-222.63664363 962.24845167 -226.81988088 968.77932416 -231 975.3125 C-231.66177246 976.34673096 -232.32354492 977.38096191 -233.00537109 978.4465332 C-233.64812988 979.45159912 -234.29088867 980.45666504 -234.953125 981.4921875 C-235.89768555 982.96510254 -235.89768555 982.96510254 -236.86132812 984.46777344 C-238.14973548 986.49365077 -239.42392081 988.52862607 -240.68554688 990.57128906 C-241.29978516 991.5609668 -241.91402344 992.55064453 -242.546875 993.5703125 C-243.09182617 994.4586377 -243.63677734 995.34696289 -244.19824219 996.26220703 C-246.01015705 998.80219467 -247.71927632 1000.13577539 -250.73828125 1001.01953125 C-256.91255192 1001.63176985 -260.56858754 999.63715717 -265.25 995.8125 C-267.09481738 994.26659362 -268.92386336 992.70430477 -270.74609375 991.13183594 C-274.31799115 988.11173751 -278.04356428 985.28941814 -281.75 982.4375 C-283.28719641 981.24443995 -284.8236628 980.05043867 -286.359375 978.85546875 C-287.10123047 978.27845215 -287.84308594 977.70143555 -288.60742188 977.10693359 C-294.56137365 972.46779022 -300.48797588 967.79371923 -306.41796875 963.12402344 C-314.28318704 956.93176825 -322.17198104 950.77082254 -330.07714844 944.62963867 C-335.20559514 940.64381338 -340.31872578 936.6392276 -345.421875 932.62109375 C-350.18374656 928.8749425 -354.96534584 925.15449161 -359.75 921.4375 C-367.99682324 915.03015239 -376.21318111 908.58505352 -384.41796875 902.12402344 C-392.28318704 895.93176825 -400.17198104 889.77082254 -408.07714844 883.62963867 C-413.20559514 879.64381338 -418.31872578 875.6392276 -423.421875 871.62109375 C-428.18374656 867.8749425 -432.96534584 864.15449161 -437.75 860.4375 C-445.99682324 854.03015239 -454.21318111 847.58505352 -462.41796875 841.12402344 C-464.11164915 839.79059557 -465.80571378 838.457658 -467.5 837.125 C-468.06533447 836.68019287 -468.63066895 836.23538574 -469.21313477 835.77709961 C-473.32480922 832.5462945 -477.45378856 829.33831135 -481.58691406 826.13500977 C-505.50842848 807.58763699 -505.50842848 807.58763699 -506.19140625 804.3359375 C-506.43011915 799.36146875 -506.17450253 796.2508825 -502.8125 792.4375 C-501.47006085 791.09235976 -500.1149877 789.75975328 -498.75 788.4375 C-497.2811342 786.8220142 -495.82321991 785.19651965 -494.375 783.5625 C-492.83361431 781.85391315 -491.29194581 780.14558138 -489.75 778.4375 C-488.24971321 776.77109149 -486.74971128 775.10442647 -485.25 773.4375 C-449.25 733.4375 -449.25 733.4375 -446.9921875 730.9296875 C-445.51707382 729.29010121 -444.04308348 727.64950345 -442.5703125 726.0078125 C-438.44902232 721.4171939 -434.30126212 716.85302893 -430.125 712.3125 C-426.56746901 708.44382178 -423.06710425 704.53415875 -419.625 700.5625 C-416.73148991 697.28318857 -413.75911641 694.07643288 -410.796875 690.859375 C-408.24444857 688.08255943 -405.72016712 685.28769283 -403.25 682.4375 C-399.8432265 678.5066075 -396.31997215 674.68553427 -392.796875 670.859375 C-390.24444857 668.08255943 -387.72016712 665.28769283 -385.25 662.4375 C-381.8432265 658.5066075 -378.31997215 654.68553427 -374.796875 650.859375 C-372.24444857 648.08255943 -369.72016712 645.28769283 -367.25 642.4375 C-363.8432265 638.5066075 -360.31997215 634.68553427 -356.796875 630.859375 C-354.24444857 628.08255943 -351.72016712 625.28769283 -349.25 622.4375 C-345.8432265 618.5066075 -342.31997215 614.68553427 -338.796875 610.859375 C-336.24444857 608.08255943 -333.72016712 605.28769283 -331.25 602.4375 C-327.8432265 598.5066075 -324.31997215 594.68553427 -320.796875 590.859375 C-318.24444857 588.08255943 -315.72016712 585.28769283 -313.25 582.4375 C-309.8432265 578.5066075 -306.31997215 574.68553427 -302.796875 570.859375 C-300.24444857 568.08255943 -297.72016712 565.28769283 -295.25 562.4375 C-291.8432265 558.5066075 -288.31997215 554.68553427 -284.796875 550.859375 C-282.24444857 548.08255943 -279.72016712 545.28769283 -277.25 542.4375 C-273.84255081 538.50582786 -270.31870327 534.68388756 -266.79467773 530.85717773 C-264.26259884 528.10276572 -261.75964732 525.33007501 -259.3125 522.5 C-255.68855356 518.31717989 -251.91744254 514.27478193 -248.15478516 510.21728516 C-244.90371086 506.70522779 -241.7161035 503.1508776 -238.59375 499.5234375 C-236.65527592 497.33033334 -234.6556638 495.19992219 -232.65209961 493.06640625 C-221.82170547 481.65182552 -221.82170547 481.65182552 -218.4765625 466.84765625 C-219.10451539 461.31270006 -221.31422767 457.74538224 -225.38671875 454.03564453 C-231.19556256 450.00219665 -238.31243815 449.25401703 -245.12109375 447.9453125 C-246.77346961 447.61416181 -248.42551131 447.28134037 -250.07725525 446.947052 C-253.83460874 446.18967205 -257.59391144 445.44301484 -261.35467529 444.70275879 C-268.34464841 443.32430806 -275.32690794 441.90855596 -282.30908203 440.49121094 C-293.28740483 438.26481572 -304.26766777 436.04833029 -315.25 433.84179688 C-316.3208098 433.62664421 -316.3208098 433.62664421 -317.41325212 433.40714502 C-318.13038998 433.263055 -318.84752785 433.11896497 -319.58639717 432.97050858 C-321.04457759 432.67752485 -322.5027577 432.38453956 -323.9609375 432.09155273 C-324.68683197 431.945707 -325.41272644 431.79986127 -326.16061771 431.64959598 C-333.63555362 430.14752399 -341.10979655 428.64201648 -348.58396745 427.13614321 C-384.44643463 419.90912136 -384.44643463 419.90912136 -420.31822205 412.72854614 C-426.12882819 411.56952921 -431.93843711 410.40556067 -437.74763203 409.23949242 C-441.99889378 408.3866158 -446.25151799 407.5410648 -450.50544834 406.70160484 C-453.59872661 406.08901637 -456.68982304 405.46560289 -459.78125 404.84375 C-461.36032387 404.53626328 -461.36032387 404.53626328 -462.97129822 404.2225647 C-469.18803623 402.9581512 -474.55188097 401.75443627 -479.0625 397 C-481.40952469 393.43599955 -481.88725807 390.53861792 -481.80148315 386.32312012 C-481.7873576 385.50104568 -481.77323204 384.67897125 -481.75867844 383.83198547 C-481.73760654 382.92772324 -481.71653465 382.023461 -481.69482422 381.09179688 C-481.67639088 380.1171196 -481.65795753 379.14244232 -481.63896561 378.13822937 C-481.57453823 374.81077397 -481.50214095 371.48353971 -481.4296875 368.15625 C-481.38062443 365.7332028 -481.33196229 363.31014746 -481.28366089 360.88708496 C-481.17384778 355.4436875 -481.06017369 350.00038811 -480.94372559 344.55712891 C-480.80840497 338.2300508 -480.67696511 331.90290381 -480.54846191 325.57568359 C-480.13916176 305.44458118 -479.7119558 285.31397279 -479.25877762 265.18380737 C-479.04119076 255.50566864 -478.82926306 245.82746843 -478.63037109 236.14892578 C-478.45347464 227.54096939 -478.26668567 218.93329627 -478.06772697 210.32582045 C-477.96378715 205.81553774 -477.8645943 201.30527225 -477.7774086 196.79463196 C-477.69611951 192.59772957 -477.60151375 188.40133895 -477.49663544 184.20496178 C-477.46066869 182.67280958 -477.42952852 181.14053504 -477.40365982 179.60817909 C-477.36756226 177.51326087 -477.31385678 175.41948448 -477.25588989 173.32507324 C-477.23045671 172.1566967 -477.20502354 170.98832016 -477.17881966 169.78453827 C-476.52100851 164.65016756 -475.08215357 160.70304589 -471.25 157.0625 C-466.572238 154.0219547 -462.20606412 153.86350189 -456.75148201 154.76942253 C-454.50900053 155.25073644 -452.2849072 155.78340707 -450.05883789 156.33569336 C-448.78279442 156.642066 -448.78279442 156.642066 -447.48097229 156.95462799 C-444.64299064 157.63801144 -441.8079007 158.33269902 -438.97265625 159.02734375 C-436.93835882 159.51951612 -434.90388456 160.01095805 -432.86924744 160.50172424 C-428.48827906 161.5600203 -424.10855699 162.62328236 -419.72973633 163.69042969 C-412.71820215 165.39912655 -405.704052 167.09690359 -398.68945312 168.79296875 C-390.13317818 170.86250519 -381.57751451 172.93453324 -373.02263451 175.00982857 C-358.14298741 178.61914653 -343.25880238 182.20924407 -328.37109375 185.78515625 C-327.30816479 186.04047308 -326.24523582 186.29578991 -325.15009689 186.55884361 C-319.80997795 187.84142947 -314.46976899 189.12364005 -309.1295166 190.40567017 C-299.51952533 192.71291077 -289.91030802 195.02337121 -280.30103683 197.33360863 C-277.07559312 198.10904458 -273.85013176 198.88440708 -270.62466431 199.65974426 C-256.79043647 202.98522313 -242.95635846 206.31132489 -229.12234497 209.63769531 C-220.73620799 211.65412832 -212.35003486 213.67041096 -203.96385384 215.68666077 C-197.1526534 217.32426019 -190.34150062 218.96205768 -183.53038502 220.60000992 C-179.3094175 221.61502549 -175.08840299 222.62984559 -170.86737633 223.64461517 C-168.93363183 224.10954451 -166.99990609 224.5745519 -165.06620216 225.03964996 C-151.96516183 228.19068075 -138.85940378 231.32144565 -125.75 234.4375 C-126.3132901 233.48992325 -126.8765802 232.5423465 -127.4569397 231.5660553 C-149.11295285 195.05307613 -156.1810101 153.29368242 -145.83813477 111.91455078 C-135.79170924 74.02497013 -111.54553562 41.04905597 -77.91943359 20.68896484 C-67.319295 14.5741426 -56.20772996 9.56837704 -44.5 6 C-43.40522339 5.66597168 -43.40522339 5.66597168 -42.28833008 5.32519531 C-28.29761032 1.3692092 -14.48226073 -0.12049501 0 0 Z " fill="#F0562D" transform="translate(505.75,-0.4375)"/>
</svg>
