<?xml version="1.0" encoding="UTF-8"?>
<svg id="Layer_1" xmlns="http://www.w3.org/2000/svg" version="1.1" viewBox="0 0 922 1000">
  <!-- Generator: Adobe Illustrator 29.3.1, SVG Export Plug-In . SVG Version: 2.1.0 Build 151)  -->
  <defs>
    <style>
      .st0 {
        fill: #eaeada;
      }
    </style>
  </defs>
  <path class="st0" d="M505.8-.4q1.2,0,2.4,0c12.6,0,24.7,1,36.9,4.4q1.2.3,2.3.6c37.6,10.7,70.1,36.5,89.5,70.4,20,36.3,24.5,77.8,13.4,117.7-6,20.5-15.9,39.2-30.2,55.2q-1.3,1.5-2.6,3c-8.7,9.9-18.6,17.6-29.4,24.9-2.8,1.9-5.3,3.9-7.9,6,57,13.8,114,27.6,171,41.2,2,.5,4,1,6,1.4,10.1,2.4,20.2,4.8,30.2,7.3,19.9,4.8,39.8,9.6,59.8,14.3,6.9,1.7,13.9,3.3,20.8,5,4.3,1,8.6,2.1,12.8,3.1,2,.5,4,1,5.9,1.4q29.5,7.1,33.4,11.2c3.1,5.1,2.7,10.8,1.4,16.5-.8,2.6-1.7,5.1-2.6,7.6-.3.9-.7,1.9-1,2.9-1.1,3.1-2.2,6.2-3.3,9.3-.8,2.2-1.6,4.4-2.3,6.6-2,5.7-4,11.3-6.1,17-2.8,7.9-5.6,15.8-8.4,23.6-1,2.9-2.1,5.8-3.1,8.7-5.5,15.4-10.8,30.9-16.1,46.3q-12.9,37.6-17.9,51.5c-.5,1.4-1,2.7-1.5,4.1-.6,1.8-1.3,3.6-2,5.4-.3,1-.7,1.9-1.1,2.9-2.1,4.6-4.5,7.7-9.2,9.6-6.3.9-12-.5-17.9-2.6-.9-.3-1.7-.6-2.6-.9-3-1-5.9-1.9-8.9-2.9-2.2-.7-4.3-1.4-6.5-2.1-7-2.3-13.9-4.6-20.9-6.9-3.9-1.3-7.8-2.6-11.8-3.9-13.2-4.3-26.3-8.7-39.5-13-26.4-8.7-52.8-17.3-79.3-25.7-2.2-.7-4.4-1.4-6.6-2.2-4.4-.5-6.3-.5-9.9,2.2-2.2,2.9-3.1,4.2-3.1,7.8,1.7,4.8,4.5,7.7,8.1,11.2,1.9,1.9,3.6,3.8,5.3,5.8,2.4,2.8,4.9,5.5,7.6,8.1,2.6,2.6,5.1,5.2,7.4,7.9,2.6,3,5.3,5.8,8.1,8.6,3.4,3.4,6.6,6.9,9.8,10.5,1.8,2.1,3.8,4,5.7,6,2.6,2.6,5.1,5.2,7.4,7.9,2.6,3,5.3,5.8,8.1,8.6,3.4,3.4,6.6,6.9,9.8,10.5,1.8,2.1,3.8,4,5.7,6,2.6,2.6,5.1,5.2,7.4,7.9,2.6,3,5.3,5.8,8.1,8.6,3.4,3.4,6.6,6.9,9.8,10.5,1.8,2.1,3.8,4,5.7,6,2.6,2.6,5.1,5.2,7.4,7.9,2.6,3,5.3,5.8,8.1,8.6,3.4,3.4,6.6,6.9,9.8,10.5,1.8,2.1,3.8,4,5.7,6,2.6,2.6,5.1,5.2,7.4,7.9,2.6,3,5.3,5.8,8.1,8.6,3.4,3.4,6.6,6.9,9.8,10.5,1.8,2.1,3.8,4,5.7,6,2.6,2.6,5.1,5.2,7.4,7.9,2.6,3,5.3,5.8,8.1,8.6,3.4,3.4,6.6,6.9,9.8,10.5,1.8,2.1,3.8,4,5.7,6,2.6,2.6,5.1,5.2,7.4,7.9,2.6,3,5.3,5.8,8.1,8.6,3.4,3.4,6.6,6.9,9.7,10.5,1.9,2.1,3.9,4.1,6,6.1,3.1,3.1,5.4,5.6,6.8,9.9,0,5.5-1.4,8-5,12-2.1,1.7-4.1,3.4-6.2,5-1.3,1-2.5,1.9-3.8,2.9-.7.5-1.3,1-2,1.5-3.5,2.7-6.9,5.5-10.3,8.3-1.4,1.1-2.7,2.2-4.1,3.3-.6.5-1.3,1-1.9,1.6-3,2.4-6,4.9-9.1,7.3-2.8,2.2-5.6,4.5-8.4,6.8-5.7,4.7-11.4,9.3-17.3,13.8-5.3,4.1-10.4,8.3-15.6,12.6-5.7,4.7-11.4,9.3-17.3,13.9-7.2,5.6-14.2,11.4-21.2,17.1-8.2,6.7-16.3,13.3-24.6,19.8-4.7,3.7-9.3,7.4-13.9,11.2-5.7,4.7-11.4,9.3-17.3,13.9-7.2,5.6-14.2,11.4-21.2,17.1-8.3,6.8-16.6,13.5-25,20.1-3.7,2.9-7.3,5.8-11,8.8-1.7,1.4-3.3,2.7-5,4.1-.6.5-1.1,1-1.7,1.4-3.5,2.8-6.7,3.1-11.1,3.2-6-1.7-9.3-8.4-12.4-13.4-1-1.5-2-3.1-2.9-4.6-.5-.8-1-1.6-1.5-2.4-2.2-3.4-4.4-6.9-6.6-10.3-4.6-7-9.1-14.1-13.6-21.1-6.5-10.2-13.1-20.4-19.8-30.6-4.4-6.8-8.8-13.5-13.2-20.3-1.3-2-2.6-4-3.8-5.9-5.4-8.4-10.8-16.8-16.2-25.2-6.5-10.2-13.1-20.4-19.8-30.6-4.4-6.8-8.8-13.5-13.2-20.3-1.3-2-2.6-4-3.8-5.9-5.4-8.4-10.8-16.8-16.2-25.2-6.5-10.2-13.1-20.4-19.8-30.5-2.7-4.1-5.4-8.3-8.1-12.5q-6.4-11.9-15.4-20.9c-3.5-.4-5.4-.4-8.3,1.5-3.5,3.3-5.8,7.1-8.3,11.2-1.1,1.7-2.1,3.5-3.2,5.2-.5.9-1.1,1.7-1.6,2.6-2.3,3.6-4.6,7.2-6.9,10.8-4.2,6.5-8.4,13.1-12.6,19.7-4.5,7.1-9.1,14.2-13.7,21.3-4.1,6.4-8.2,12.8-12.3,19.2-4.5,7.1-9.1,14.1-13.6,21.2-4.2,6.4-8.3,12.9-12.4,19.3-4.5,7.1-9.1,14.2-13.7,21.3-4.1,6.4-8.2,12.8-12.3,19.2-4.5,7.1-9.1,14.1-13.6,21.2-4.2,6.4-8.3,12.9-12.4,19.3-4.5,7.1-9.1,14.2-13.7,21.3-4.2,6.5-8.4,13-12.6,19.6-.7,1-1.3,2.1-2,3.1-.6,1-1.3,2-1.9,3q-.9,1.5-1.9,3c-1.3,2-2.6,4.1-3.8,6.1-.6,1-1.2,2-1.9,3-.5.9-1.1,1.8-1.7,2.7-1.8,2.5-3.5,3.9-6.5,4.8-6.2.6-9.8-1.4-14.5-5.2-1.8-1.5-3.7-3.1-5.5-4.7-3.6-3-7.3-5.8-11-8.7-1.5-1.2-3.1-2.4-4.6-3.6-.7-.6-1.5-1.2-2.2-1.7-6-4.6-11.9-9.3-17.8-14-7.9-6.2-15.8-12.4-23.7-18.5-5.1-4-10.2-8-15.3-12-4.8-3.7-9.5-7.5-14.3-11.2-8.2-6.4-16.5-12.9-24.7-19.3-7.9-6.2-15.8-12.4-23.7-18.5-5.1-4-10.2-8-15.3-12-4.8-3.7-9.5-7.5-14.3-11.2-8.2-6.4-16.5-12.9-24.7-19.3-1.7-1.3-3.4-2.7-5.1-4-.6-.4-1.1-.9-1.7-1.3-4.1-3.2-8.2-6.4-12.4-9.6Q.2,807.2-.4,803.9c-.2-5,0-8.1,3.4-11.9,1.3-1.3,2.7-2.7,4.1-4,1.5-1.6,2.9-3.2,4.4-4.9,1.5-1.7,3.1-3.4,4.6-5.1,1.5-1.7,3-3.3,4.5-5q36-40,38.3-42.5c1.5-1.6,2.9-3.3,4.4-4.9,4.1-4.6,8.3-9.2,12.4-13.7,3.6-3.9,7.1-7.8,10.5-11.8,2.9-3.3,5.9-6.5,8.8-9.7,2.6-2.8,5.1-5.6,7.5-8.4,3.4-3.9,6.9-7.8,10.5-11.6,2.6-2.8,5.1-5.6,7.5-8.4,3.4-3.9,6.9-7.8,10.5-11.6,2.6-2.8,5.1-5.6,7.5-8.4,3.4-3.9,6.9-7.8,10.5-11.6,2.6-2.8,5.1-5.6,7.5-8.4,3.4-3.9,6.9-7.8,10.5-11.6,2.6-2.8,5.1-5.6,7.5-8.4,3.4-3.9,6.9-7.8,10.5-11.6,2.6-2.8,5.1-5.6,7.5-8.4,3.4-3.9,6.9-7.8,10.5-11.6,2.6-2.8,5.1-5.6,7.5-8.4,3.4-3.9,6.9-7.8,10.5-11.6,2.6-2.8,5.1-5.6,7.5-8.4,3.4-3.9,6.9-7.8,10.5-11.6,2.5-2.8,5-5.5,7.5-8.4,3.6-4.2,7.4-8.2,11.2-12.3,3.3-3.5,6.4-7.1,9.6-10.7,1.9-2.2,3.9-4.3,5.9-6.5q10.8-11.4,14.2-26.2c-.6-5.5-2.8-9.1-6.9-12.8-5.8-4-12.9-4.8-19.7-6.1-1.7-.3-3.3-.7-5-1-3.8-.8-7.5-1.5-11.3-2.2-7-1.4-14-2.8-21-4.2-11-2.2-22-4.4-32.9-6.6q-1.1-.2-2.2-.4c-.7-.1-1.4-.3-2.2-.4-1.5-.3-2.9-.6-4.4-.9-.7-.1-1.5-.3-2.2-.4-7.5-1.5-14.9-3-22.4-4.5q-35.9-7.2-71.7-14.4c-5.8-1.2-11.6-2.3-17.4-3.5-4.3-.9-8.5-1.7-12.8-2.5-3.1-.6-6.2-1.2-9.3-1.9q-1.6-.3-3.2-.6c-6.2-1.3-11.6-2.5-16.1-7.2-2.3-3.6-2.8-6.5-2.7-10.7,0-.8,0-1.6,0-2.5,0-.9,0-1.8,0-2.7,0-1,0-1.9,0-3,0-3.3.1-6.7.2-10,0-2.4,0-4.8.1-7.3.1-5.4.2-10.9.3-16.3.1-6.3.3-12.7.4-19,.4-20.1.8-40.3,1.3-60.4.2-9.7.4-19.4.6-29,.2-8.6.4-17.2.6-25.8.1-4.5.2-9,.3-13.5,0-4.2.2-8.4.3-12.6,0-1.5,0-3.1,0-4.6,0-2.1,0-4.2.1-6.3,0-1.2,0-2.3,0-3.5.7-5.1,2.1-9.1,5.9-12.7,4.7-3,9-3.2,14.5-2.3,2.2.5,4.5,1,6.7,1.6q1.3.3,2.6.6c2.8.7,5.7,1.4,8.5,2.1,2,.5,4.1,1,6.1,1.5,4.4,1.1,8.8,2.1,13.1,3.2,7,1.7,14,3.4,21,5.1,8.6,2.1,17.1,4.1,25.7,6.2,14.9,3.6,29.8,7.2,44.7,10.8,1.1.3,2.1.5,3.2.8,5.3,1.3,10.7,2.6,16,3.8,9.6,2.3,19.2,4.6,28.8,6.9,3.2.8,6.5,1.6,9.7,2.3,13.8,3.3,27.7,6.7,41.5,10,8.4,2,16.8,4,25.2,6,6.8,1.6,13.6,3.3,20.4,4.9,4.2,1,8.4,2,12.7,3,1.9.5,3.9.9,5.8,1.4,13.1,3.2,26.2,6.3,39.3,9.4-.6-.9-1.1-1.9-1.7-2.9-21.7-36.5-28.7-78.3-18.4-119.7,10-37.9,34.3-70.9,67.9-91.2,10.6-6.1,21.7-11.1,33.4-14.7q1.1-.3,2.2-.7c14-4,27.8-5.4,42.3-5.3Z"/>
</svg>